<?xml version="1.0" encoding="UTF-8" standalone="no"?>
<svg width="104px" height="38px" viewBox="0 0 104 38" version="1.1" xmlns="http://www.w3.org/2000/svg" xmlns:xlink="http://www.w3.org/1999/xlink" xmlns:sketch="http://www.bohemiancoding.com/sketch/ns">
    <!-- Generator: Sketch 3.2.2 (9983) - http://www.bohemiancoding.com/sketch -->
    <title>Imported Layers + UX + Path</title>
    <desc>Created with Sketch.</desc>
    <defs></defs>
    <g id="Page-1" stroke="none" stroke-width="1" fill="none" fill-rule="evenodd" sketch:type="MSPage">
        <g id="Artboard" sketch:type="MSArtboardGroup" transform="translate(-176.000000, -20.000000)" fill="#FFFFFF">
            <g id="Imported-Layers-+-UX-+-Path" sketch:type="MSLayerGroup" transform="translate(176.000000, 20.000000)">
                <path d="M101.485537,0 L101.485537,25.7346857 L101.473822,25.9550857 C101.225467,30.8831429 96.8558182,34.7428571 91.5278926,34.7428571 C86.1999669,34.7428571 81.8303182,30.8831429 81.5819628,25.9550857 L81.5702479,25.7596571 L81.5702479,0 L79.2272727,0 L79.2272727,25.8193714 L79.2307872,25.878 L79.2425021,26.0734286 C79.5482603,32.1447429 84.9453037,36.9142857 91.5278926,36.9142857 C98.1104814,36.9142857 103.507525,32.1447429 103.814455,26.0560571 L103.826169,25.8389143 L103.828512,25.7868 L103.828512,0 L101.485537,0" id="Imported-Layers" sketch:type="MSShapeGroup"></path>
                <path d="M50.3587224,18.0243243 L37.2788698,0 L46.3341523,0 L55.3894349,12.0162162 L63.4385749,0 L72.4938575,0 L59.4140049,18.0243243 L73.5,37.05 L64.4447174,37.05 L55.3894349,24.0324324 L45.3280098,37.05 L36.2727273,37.05 L50.3587224,18.0243243 Z" id="UX" sketch:type="MSShapeGroup"></path>
                <path d="M0,0 L0,23.0310811 C0,27.2523523 5.83044434,37.0499992 16.2272727,37.05 C26.6241011,37.0500008 32.4545455,27.2523523 32.4545455,23.0310811 L32.4545455,0 L25.3551136,0 L25.3551136,21.0283784 C24.965035,24.2883473 23.3232422,30.2626953 16.2272727,30.0405405 C9.13130327,29.8183858 7.48951049,24.2883473 7.09943182,21.0283784 L7.09943182,0 L0,0 Z" id="Path" sketch:type="MSShapeGroup"></path>
            </g>
        </g>
    </g>
</svg>